<?xml version="1.0" standalone="no"?>
<!DOCTYPE svg PUBLIC "-//W3C//DTD SVG 20010904//EN"
 "http://www.w3.org/TR/2001/REC-SVG-20010904/DTD/svg10.dtd">
<svg version="1.0" xmlns="http://www.w3.org/2000/svg"
 width="185.000000pt" height="72.000000pt" viewBox="0 0 185.000000 72.000000"
 preserveAspectRatio="xMidYMid meet">

<g transform="translate(0.000000,72.000000) scale(0.100000,-0.100000)"
fill="#FFFFFF" stroke="none">
<path d="M0 504 l0 -215 43 3 42 3 3 213 2 212 -45 0 -45 0 0 -216z"/>
<path d="M172 508 l3 -213 43 -3 42 -3 0 215 0 216 -45 0 -45 0 2 -212z"/>
<path d="M350 660 l0 -60 45 0 45 0 0 60 0 60 -45 0 -45 0 0 -60z"/>
<path d="M350 399 l0 -110 43 3 42 3 3 108 3 107 -46 0 -45 0 0 -111z"/>
<path d="M610 399 c0 -100 2 -110 18 -107 15 3 17 18 20 111 3 102 2 107 -18
107 -19 0 -20 -6 -20 -111z"/>
<path d="M680 400 c0 -101 2 -111 18 -108 13 2 18 15 20 58 l4 55 22 -55 c13
-32 29 -56 39 -58 15 -3 17 9 17 107 0 103 -1 111 -19 111 -17 0 -20 -8 -23
-47 l-3 -48 -16 45 c-11 32 -22 46 -37 48 -21 3 -22 1 -22 -108z"/>
<path d="M832 403 c3 -93 5 -108 21 -111 14 -3 17 4 17 42 0 42 2 46 25 46 18
0 25 5 25 20 0 15 -7 20 -25 20 -20 0 -25 5 -25 25 0 21 5 25 30 25 23 0 30 4
30 20 0 17 -7 20 -50 20 l-51 0 3 -107z"/>
<path d="M960 399 c0 -100 2 -110 18 -107 12 2 18 15 20 46 4 52 17 54 29 6 8
-36 36 -65 49 -52 3 4 -1 26 -10 49 -13 31 -14 44 -5 55 15 18 14 81 -1 99 -8
9 -30 15 -56 15 l-44 0 0 -111z m69 67 c14 -16 4 -46 -15 -46 -9 0 -14 11 -14
30 0 32 11 38 29 16z"/>
<path d="M1141 473 c-29 -110 -41 -162 -41 -172 0 -21 31 -11 40 14 6 15 17
25 30 25 13 0 24 -10 30 -25 9 -25 40 -35 40 -14 0 10 -12 62 -41 172 -7 26
-15 37 -29 37 -14 0 -22 -11 -29 -37z m39 -57 c0 -8 3 -21 6 -30 4 -12 0 -16
-16 -16 -16 0 -20 4 -16 16 3 9 6 22 6 30 0 8 5 14 10 14 6 0 10 -6 10 -14z"/>
<path d="M1262 403 c3 -93 5 -108 21 -111 14 -3 17 4 17 42 0 42 2 46 25 46
18 0 25 5 25 20 0 15 -7 20 -25 20 -20 0 -25 5 -25 25 0 21 5 25 30 25 23 0
30 4 30 20 0 17 -7 20 -50 20 l-51 0 3 -107z"/>
<path d="M1390 399 c0 -100 2 -110 18 -107 15 3 17 18 20 111 3 102 2 107 -18
107 -19 0 -20 -6 -20 -111z"/>
<path d="M1460 401 l0 -111 29 0 c70 0 103 38 81 94 -6 16 -6 35 -1 49 6 16 5
32 -3 48 -9 19 -20 25 -59 27 l-47 3 0 -110z m70 64 c10 -12 10 -18 0 -30 -19
-23 -30 -18 -30 15 0 33 11 38 30 15z m5 -105 c0 -16 -6 -26 -17 -28 -14 -3
-18 3 -18 28 0 25 4 31 18 28 11 -2 17 -12 17 -28z"/>
<path d="M1610 399 c0 -100 2 -110 18 -107 12 2 18 15 20 46 4 54 15 53 30 -3
9 -34 17 -45 32 -45 24 0 24 -3 5 51 -11 29 -12 46 -5 53 14 14 13 89 -2 104
-7 7 -31 12 -55 12 l-43 0 0 -111z m68 48 c2 -19 -1 -27 -12 -27 -11 0 -16 10
-16 31 0 38 24 35 28 -4z"/>
<path d="M1752 403 l3 -108 48 -3 c42 -3 47 -1 47 17 0 17 -6 21 -31 21 -27 0
-30 3 -27 28 2 21 9 28 31 30 15 2 27 9 27 17 0 8 -12 15 -27 17 -20 2 -29 9
-31 26 -3 19 1 22 27 22 24 0 31 4 31 20 0 17 -7 20 -50 20 l-51 0 3 -107z"/>
<path d="M610 120 c0 -67 4 -110 10 -110 6 0 10 35 11 83 l1 82 39 -82 c21
-46 43 -83 49 -83 6 0 10 42 10 110 0 67 -4 110 -10 110 -6 0 -10 -35 -11 -82
l0 -83 -39 83 c-21 45 -43 82 -49 82 -7 0 -11 -39 -11 -110z"/>
<path d="M770 120 l0 -110 45 0 c25 0 45 5 45 10 0 6 -16 10 -35 10 -34 0 -35
1 -35 40 0 38 2 40 30 40 17 0 30 5 30 10 0 6 -13 10 -30 10 -28 0 -30 2 -30
40 0 39 1 40 35 40 19 0 35 5 35 10 0 6 -20 10 -45 10 l-45 0 0 -110z"/>
<path d="M885 220 c-4 -6 5 -10 19 -10 l26 0 0 -100 c0 -60 4 -100 10 -100 6
0 10 40 10 100 l0 100 25 0 c14 0 25 5 25 10 0 6 -24 10 -54 10 -30 0 -58 -4
-61 -10z"/>
<path d="M1020 213 c1 -29 37 -193 44 -200 13 -13 24 14 37 92 14 88 16 86 40
-38 6 -35 15 -57 22 -54 11 3 46 148 47 195 1 50 -18 8 -31 -68 -7 -44 -14
-78 -16 -77 -2 2 -8 30 -13 63 -17 95 -20 104 -34 104 -13 0 -35 -91 -36 -146
-1 -30 -16 3 -24 51 -13 78 -18 95 -27 95 -5 0 -9 -8 -9 -17z"/>
<path d="M1256 214 c-12 -11 -16 -36 -16 -94 0 -85 12 -110 53 -110 30 0 44
11 56 43 21 55 8 150 -22 169 -20 13 -55 9 -71 -8z m62 -16 c7 -7 12 -42 12
-85 0 -59 -3 -75 -16 -80 -34 -13 -49 11 -52 81 -4 84 20 120 56 84z"/>
<path d="M1390 120 c0 -67 4 -110 10 -110 6 0 10 23 10 50 0 43 3 50 19 50 14
0 24 -13 36 -50 9 -28 21 -50 26 -50 13 0 11 15 -6 57 -14 32 -14 38 0 53 20
22 19 74 -1 94 -9 9 -32 16 -55 16 l-39 0 0 -110z m80 75 c7 -8 10 -25 6 -40
-5 -20 -13 -25 -36 -25 -28 0 -30 2 -30 40 0 35 3 40 24 40 13 0 29 -7 36 -15z"/>
<path d="M1540 120 c0 -67 4 -110 10 -110 6 0 10 15 10 33 0 17 7 40 15 50 13
18 15 15 39 -32 15 -28 31 -51 36 -51 14 0 13 4 -20 70 l-30 60 25 40 c27 43
30 50 16 50 -5 0 -24 -26 -43 -57 l-33 -58 -3 58 c-5 102 -22 62 -22 -53z"/>
<path d="M1696 217 c-12 -9 -17 -23 -14 -47 2 -29 10 -39 41 -55 32 -17 37
-24 35 -50 -4 -38 -46 -50 -55 -16 -7 26 -23 28 -23 3 0 -46 69 -59 96 -17 24
37 11 71 -37 95 -34 18 -40 25 -37 48 4 36 36 42 59 11 23 -31 37 -17 15 16
-18 28 -52 33 -80 12z"/>
</g>
</svg>
